# xmcd CD database file
#
# Track frame offsets:
#	150
#	9115
#	26046
#	42764
#	53520
#	71513
#	91205
#	104555
#	111260
#
# Disc length: 1670 seconds
#
# Revision: 0
# Processed by: cddbd v1.5.2PL0 Copyright (c) Steve Scherf et al.
# Submitted via: CDex 1.51
#
DISCID=67068409
DTITLE=post modern trio - PMT II
DYEAR=1900
DGENRE=Jazz
TTITLE0=Daphne
TTITLE1=Things ain't what they used to be
TTITLE2=Blue bossa
TTITLE3=Cantina rag
TTITLE4=Autumn leaves
TTITLE5=Caravan
TTITLE6=Have you met Miss jones
TTITLE7=It don't mean a thing if it ain't got that swing
TTITLE8=Someday my prince will come
EXTD=
EXTT0=
EXTT1=
EXTT2=
EXTT3=
EXTT4=
EXTT5=
EXTT6=
EXTT7=
EXTT8=
PLAYORDER=
